<?xml version="1.0" encoding="utf-8" ?>
<svg xmlns="http://www.w3.org/2000/svg" xmlns:xlink="http://www.w3.org/1999/xlink" width="954" height="875">
	<path transform="scale(1.41649 1.41649)" d="M199.022 144.722C199.831 146.492 200.164 148.116 199.412 149.988C198.624 151.953 196.981 153.149 195.186 154.112C193.119 154.123 191.054 154.263 189.121 153.4C191.511 152.77 195.558 152.798 197.375 151.069C199.12 149.408 199.008 146.93 199.022 144.722Z"/>
	<path transform="scale(1.41649 1.41649)" d="M159.564 410.477L160.683 411.802C160.705 416.897 160.666 422.007 160.913 427.097C161.425 437.687 162.464 448.629 161.227 459.202C160.461 454.11 160.716 448.492 160.54 443.33C160.166 432.375 159.772 421.438 159.564 410.477Z"/>
	<path transform="scale(1.41649 1.41649)" d="M159.564 410.477C158.857 388.965 159.08 367.346 159.48 345.833C159.647 336.801 159.156 325.923 160.238 317.103C161.711 332.82 160.45 349.075 160.332 364.843C160.214 380.484 160.983 396.176 160.683 411.802L159.564 410.477Z"/>
	<path transform="scale(1.41649 1.41649)" d="M150.576 158.971C151.764 158.993 153.062 158.933 154.198 159.323C158.491 160.795 167.251 172.396 169.302 176.553C169.185 177.693 169.118 178.969 168.676 180.038C167.828 182.087 165.849 182.736 163.961 183.523C162.903 183.62 161.913 183.651 160.867 183.424C155.834 182.331 150.767 175.911 148.16 171.828C146.658 169.478 145.035 166.318 145.782 163.469C146.389 161.157 148.65 160.04 150.576 158.971Z"/>
	<path transform="scale(1.41649 1.41649)" d="M169.742 102.883C171.159 103.057 172.568 103.325 173.975 103.561C178.693 107.587 185.823 125.208 189.897 131.962C192.595 136.433 196.735 139.955 199.022 144.722C199.008 146.93 199.12 149.408 197.375 151.069C195.558 152.798 191.511 152.77 189.121 153.4C181.91 148.921 172.368 130.414 168.787 122.663C166.951 118.692 162.397 111.323 164.143 107.079C165.13 104.681 167.538 103.827 169.742 102.883Z"/>
	<path transform="scale(1.41649 1.41649)" d="M225.699 76.4307C225.863 76.4456 226.027 76.4542 226.19 76.4752C229.314 76.8785 231.153 78.2141 232.983 80.6434C233.906 90.3669 233.436 100.141 234.214 109.9C234.514 113.658 235.5 117.443 236.094 121.173C236.51 123.781 237.354 127.713 236.166 130.187C235.078 132.454 232.653 133.192 230.465 133.99C228.391 133.866 226.667 132.94 224.905 131.936C223.546 129.948 222.793 128.065 222.238 125.726C220.344 117.748 216.433 85.3067 220.57 79.1292C221.802 77.2905 223.67 76.8616 225.699 76.4307Z"/>
	<path transform="scale(1.41649 1.41649)" d="M164.22 247.101C165.605 232.829 169.935 218.521 177.307 206.182C182.093 198.173 188.224 190.012 194.91 183.505C234.745 144.738 313.068 121.36 366.501 108.11C402.074 99.2887 438.857 93.3116 475.373 90.2551C483.433 89.5805 492.088 88.3194 500.14 89.0917C505.362 89.5925 510.653 91.4202 515.123 94.154C522.263 98.5202 527.677 106.139 529.633 114.262C531.988 124.043 530.663 136.065 525.273 144.655C516.333 158.904 500.661 165.298 484.932 168.964C480.919 169.795 476.898 170.611 472.9 171.512C466.58 172.888 460.146 173.881 453.786 175.067L417.89 182.037C409.977 183.65 402.09 185.365 394.215 187.157C389.77 188.168 385.248 189.448 380.745 190.133C389.735 194.334 396.445 200.798 399.857 210.294C403.065 219.222 403.038 230.675 400.732 239.834C410.149 231.449 419.498 223.044 429.67 215.564C445.288 204.079 470.5 189.738 490.391 190.838C501.654 191.461 512.383 195.776 519.969 204.318C527.809 213.146 529.054 223.478 528.295 234.879C527.949 240.073 526.875 245.088 524.694 249.835C519.163 261.871 505.777 273.81 495.947 282.374C480.843 295.534 464.771 307.778 449.266 320.488C436.464 330.983 422.821 341.355 413.212 355.036C403.593 368.732 396.832 384.454 393.937 400.951C392.537 408.93 391.841 417.022 390.279 424.978C384.354 455.143 371.797 489.916 347.9 510.661C359.589 509.395 378.545 507.643 388.06 515.534C390.302 517.393 391.789 520.079 391.917 523.022C392.084 526.884 389.714 530.518 387.117 533.181C364.822 556.045 286.201 561.649 254.216 561.872C227.214 562.061 200.316 557.132 180.366 537.54C164.31 521.772 163.247 504.388 162.241 483.399C161.859 475.42 161.292 467.379 161.223 459.396C161.222 459.331 161.226 459.266 161.227 459.202C162.464 448.629 161.425 437.687 160.913 427.097C160.666 422.007 160.705 416.897 160.683 411.802C160.983 396.176 160.214 380.484 160.332 364.843C160.45 349.075 161.711 332.82 160.238 317.103C159.871 310.298 160.895 300.313 161.208 293.157L162.397 269.295C162.627 265.333 162.651 261.24 163.27 257.328C163.403 253.954 163.623 250.425 164.22 247.101ZM379.092 393.007C375.301 395.456 371.458 397.924 367.451 400.004C361.178 403.258 340.51 412.634 334.052 411.206C332.588 410.883 331.363 410.1 330.618 408.776C329.86 407.428 329.647 405.9 330.109 404.423C330.795 402.226 332.513 401.021 334.496 400.051C338.997 397.85 344.056 396.567 348.738 394.768C364.479 388.719 380.141 379.423 386.044 362.672C387.26 359.221 387.871 355.866 388.079 352.223C388.27 348.684 387.929 345.353 387.25 341.879C386.638 339.07 385.658 336.435 384.867 333.685C380.532 334.125 376.156 334.194 371.807 334.453L347.617 336.086L319.858 338.069C314.406 338.446 308.866 339.07 303.402 338.952C301.265 338.906 298.851 338.907 297.137 337.466C295.764 336.313 294.627 334.439 294.584 332.609C294.547 331.053 295.325 329.565 296.408 328.487C299.957 324.956 308.374 325.518 313.191 325.235C325.254 324.525 337.299 323.526 349.345 322.584C365.046 321.356 383.452 322.814 393.9 308.657C397.078 304.35 398.871 299.432 399.071 294.076C399.344 286.761 397.035 279.853 391.959 274.516C386.628 268.91 379.406 266.306 371.749 266.176C363.616 266.038 355.284 266.903 347.143 267.272L292.702 270.013C284.103 270.484 274.872 272.068 266.307 271.334C264.201 271.153 262.487 270.52 260.982 268.969C259.733 267.682 259.227 265.954 259.326 264.183C259.413 262.629 260.085 261.215 261.276 260.206C262.475 259.189 263.927 258.804 265.45 258.562C272.58 257.431 280.215 257.506 287.435 257.065L335.791 254.484C346.275 253.978 368.002 254.31 376.706 249.563C383.086 246.084 386.42 239.211 387.26 232.206C388.166 224.644 387.144 214.971 382.263 208.807C377.245 202.469 368.865 199.559 361.074 198.69C353.718 197.869 345.82 198.928 338.474 199.63C331.064 200.338 323.652 201.032 316.266 201.967C311.427 202.579 305.762 203.898 300.887 203.56C298.836 203.418 296.554 202.596 295.229 200.956C294.377 199.902 294.036 198.614 294.195 197.273C294.404 195.525 295.319 194.021 296.744 192.999C297.91 192.163 299.276 191.658 300.666 191.343C305.953 190.144 311.843 190.03 317.254 189.511C325.43 188.726 333.582 187.705 341.755 186.889C346.913 186.375 352.121 186.163 357.243 185.345C362.737 184.469 366.821 180.477 371.757 178.246C376.671 176.026 382.286 174.723 387.542 173.547C404.218 169.815 420.976 166.534 437.769 163.383L466.158 157.906C476.662 155.79 488.919 153.922 498.447 148.945C507.702 144.109 512.816 136.38 515.975 126.701C504.59 135.989 489.817 140.899 475.095 139.464C466.037 138.581 457.658 134.642 451.878 127.538C446.499 120.927 446.948 115.766 445.276 108.004C426.97 110.693 408.801 113.628 390.696 117.497C335.543 129.283 230.744 158.045 196.283 204.235C188.93 214.091 183.524 225.732 180.918 237.753C177.064 255.533 176.712 277.359 175.82 295.671C175.241 307.54 174.491 319.473 174.169 331.349C172.991 374.862 173.756 418.595 175.939 462.054C176.271 468.661 176.716 475.292 176.992 481.898C177.278 488.738 177.336 495.564 178.307 502.358C180.117 515.036 186.743 524.796 196.922 532.377C212.955 544.318 231.474 547.806 251.007 544.889C286.266 539.624 327.746 516.087 349.005 487.306C366.709 463.338 374.964 432.601 378.313 403.36C378.708 399.912 378.799 396.46 379.092 393.007ZM483.793 205.443C455.541 209.982 416.894 240.021 399.435 262.114C409.147 271.201 413.387 277.792 413.787 291.533C414.077 301.506 411.534 312.366 404.498 319.805C402.092 322.349 399.197 324.516 396.489 326.728C399.144 331.751 400.266 337.48 402.204 342.785C403.493 340.926 404.723 338.831 406.199 337.127C406.254 337.034 406.309 336.94 406.365 336.848C410.657 329.846 424.538 318.065 431.058 312.819L471.12 280.972C483.227 271.273 498.502 260.965 507.123 247.894C511.554 241.176 514.18 231.899 512.315 223.914C510.92 217.941 506.963 212.613 501.744 209.423C496.826 206.417 489.554 204.573 483.793 205.443ZM490.83 103.197C479.68 103.917 468.073 104.478 457.129 106.753C456.957 112.299 457.444 117.18 461.441 121.418C465.89 126.134 471.998 127.786 478.223 128.556C488.957 128.854 499.925 126.278 507.848 118.698C509.547 117.073 511.018 115.038 512.823 113.565C509.92 108.745 506.367 104.991 500.743 103.611C497.467 102.807 494.165 102.915 490.83 103.197ZM472.9 171.512C476.898 170.611 480.919 169.795 484.932 168.964C481.343 167.637 477.006 169.132 473.532 170.299C473.306 170.375 473.143 170.397 472.92 170.436C472.857 170.854 472.825 171.088 472.9 171.512ZM387.25 341.879C387.929 345.353 388.27 348.684 388.079 352.223C388.381 351.802 388.669 351.323 388.838 350.833C389.617 348.57 389.088 342.487 387.936 340.369L387.581 340.484L387.25 341.879ZM164.22 247.101C163.623 250.425 163.403 253.954 163.27 257.328C163.727 257.838 163.882 258.276 163.914 258.971C163.921 259.131 163.898 259.291 163.89 259.451L164.153 259.197C164.603 255.062 164.651 251.228 164.22 247.101Z"/>
	<path transform="scale(1.41649 1.41649)" d="M164.22 247.101C164.651 251.228 164.603 255.062 164.153 259.197L163.89 259.451C163.898 259.291 163.921 259.131 163.914 258.971C163.882 258.276 163.727 257.838 163.27 257.328C163.403 253.954 163.623 250.425 164.22 247.101Z"/>
	<path transform="scale(1.41649 1.41649)" d="M387.25 341.879L387.581 340.484L387.936 340.369C389.088 342.487 389.617 348.57 388.838 350.833C388.669 351.323 388.381 351.802 388.079 352.223C388.27 348.684 387.929 345.353 387.25 341.879Z"/>
	<path transform="scale(1.41649 1.41649)" d="M472.9 171.512C472.825 171.088 472.857 170.854 472.92 170.436C473.143 170.397 473.306 170.375 473.532 170.299C477.006 169.132 481.343 167.637 484.932 168.964C480.919 169.795 476.898 170.611 472.9 171.512Z"/>
	<path transform="scale(1.41649 1.41649)" d="M236.448 205.702C237.115 205.666 237.746 205.664 238.41 205.761C240.344 206.041 242.195 207.109 243.339 208.708C244.573 210.434 244.559 212.623 243.565 214.463C242.244 216.909 239.421 218.727 237.391 220.596C231.351 226.16 228.168 235.059 226.735 242.929C225.416 250.176 225.679 257.455 225.934 264.777C227.027 296.187 235.778 327.628 252.32 354.425C255.296 359.246 258.639 363.803 262.324 368.108C264.492 370.639 267.205 373.106 269.025 375.863C270.157 377.578 270.73 379.983 270.248 382.008C269.73 384.182 268.259 384.93 266.481 385.996C265.472 386.206 264.377 386.501 263.349 386.267C254.96 384.358 243.118 364.349 238.739 357.183C222.03 329.839 214.33 297.224 213.438 265.394C213.15 255.111 213.391 244.59 215.874 234.55C218.739 222.964 226.176 211.911 236.448 205.702Z"/>
</svg>
